<svg width="1440" height="4554" viewBox="0 0 1440 4554" fill="none" xmlns="http://www.w3.org/2000/svg">
<g clip-path="url(#clip0)">
<rect width="1440" height="4554" fill="white"/>
<g filter="url(#filter0_d)">
<rect x="317" y="-158" width="1123" height="1172" fill="url(#paint0_linear)"/>
<rect y="485" width="317" height="529" fill="url(#paint1_linear)"/>
<rect y="-158" width="403" height="643" fill="url(#paint2_linear)"/>
<rect y="1013" width="1440" height="1182" fill="url(#paint3_linear)"/>
<rect x="1" y="1898" width="1440" height="1237" fill="url(#paint4_linear)"/>
<path d="M773 429H1440V2155H773V429Z" fill="url(#paint5_linear)"/>
<rect x="329" y="2622" width="1112" height="1130" fill="url(#paint6_linear)"/>
<rect y="3135" width="891" height="617" fill="url(#paint7_linear)"/>
<path d="M618.03 770.848C622.155 770.848 625.498 767.506 625.498 763.383C625.498 759.261 622.155 755.918 618.03 755.918C613.906 755.918 610.562 759.261 610.562 763.383C610.562 767.506 613.906 770.848 618.03 770.848Z" fill="#201F1F"/>
<path d="M670.304 770.848C674.428 770.848 677.771 767.506 677.771 763.383C677.771 759.261 674.428 755.918 670.304 755.918C666.179 755.918 662.836 759.261 662.836 763.383C662.836 767.506 666.179 770.848 670.304 770.848Z" fill="#201F1F"/>
<path d="M722.579 770.848C726.703 770.848 730.047 767.506 730.047 763.383C730.047 759.261 726.703 755.918 722.579 755.918C718.455 755.918 715.111 759.261 715.111 763.383C715.111 767.506 718.455 770.848 722.579 770.848Z" fill="#201F1F"/>
<path d="M618.03 823.101C622.155 823.101 625.498 819.759 625.498 815.636C625.498 811.513 622.155 808.171 618.03 808.171C613.906 808.171 610.562 811.513 610.562 815.636C610.562 819.759 613.906 823.101 618.03 823.101Z" fill="#201F1F"/>
<path d="M670.304 823.101C674.428 823.101 677.771 819.759 677.771 815.636C677.771 811.513 674.428 808.171 670.304 808.171C666.179 808.171 662.836 811.513 662.836 815.636C662.836 819.759 666.179 823.101 670.304 823.101Z" fill="#201F1F"/>
<path d="M722.579 823.101C726.703 823.101 730.047 819.759 730.047 815.636C730.047 811.513 726.703 808.171 722.579 808.171C718.455 808.171 715.111 811.513 715.111 815.636C715.111 819.759 718.455 823.101 722.579 823.101Z" fill="#201F1F"/>
<path d="M618.03 875.354C622.155 875.354 625.498 872.012 625.498 867.889C625.498 863.766 622.155 860.424 618.03 860.424C613.906 860.424 610.562 863.766 610.562 867.889C610.562 872.012 613.906 875.354 618.03 875.354Z" fill="#201F1F"/>
<path d="M670.304 875.354C674.428 875.354 677.771 872.012 677.771 867.889C677.771 863.766 674.428 860.424 670.304 860.424C666.179 860.424 662.836 863.766 662.836 867.889C662.836 872.012 666.179 875.354 670.304 875.354Z" fill="#201F1F"/>
<path d="M722.579 875.354C726.703 875.354 730.047 872.012 730.047 867.889C730.047 863.766 726.703 860.424 722.579 860.424C718.455 860.424 715.111 863.766 715.111 867.889C715.111 872.012 718.455 875.354 722.579 875.354Z" fill="#201F1F"/>
<path d="M107.437 196.875C113.754 196.875 118.875 191.754 118.875 185.437C118.875 179.121 113.754 174 107.437 174C101.121 174 96 179.121 96 185.437C96 191.754 101.121 196.875 107.437 196.875Z" fill="#201F1F"/>
<path d="M187.499 196.875C193.816 196.875 198.936 191.754 198.936 185.437C198.936 179.121 193.816 174 187.499 174C181.182 174 176.062 179.121 176.062 185.437C176.062 191.754 181.182 196.875 187.499 196.875Z" fill="#201F1F"/>
<path d="M267.562 196.875C273.879 196.875 279 191.754 279 185.437C279 179.121 273.879 174 267.562 174C261.246 174 256.125 179.121 256.125 185.437C256.125 191.754 261.246 196.875 267.562 196.875Z" fill="#201F1F"/>
<path d="M107.437 276.937C113.754 276.937 118.875 271.817 118.875 265.5C118.875 259.183 113.754 254.062 107.437 254.062C101.121 254.062 96 259.183 96 265.5C96 271.817 101.121 276.937 107.437 276.937Z" fill="#201F1F"/>
<path d="M187.499 276.937C193.816 276.937 198.936 271.817 198.936 265.5C198.936 259.183 193.816 254.062 187.499 254.062C181.182 254.062 176.062 259.183 176.062 265.5C176.062 271.817 181.182 276.937 187.499 276.937Z" fill="#201F1F"/>
<path d="M267.562 276.937C273.879 276.937 279 271.817 279 265.5C279 259.183 273.879 254.062 267.562 254.062C261.246 254.062 256.125 259.183 256.125 265.5C256.125 271.817 261.246 276.937 267.562 276.937Z" fill="#201F1F"/>
<path d="M107.437 357C113.754 357 118.875 351.879 118.875 345.562C118.875 339.246 113.754 334.125 107.437 334.125C101.121 334.125 96 339.246 96 345.562C96 351.879 101.121 357 107.437 357Z" fill="#201F1F"/>
<path d="M187.499 357C193.816 357 198.936 351.879 198.936 345.562C198.936 339.246 193.816 334.125 187.499 334.125C181.182 334.125 176.062 339.246 176.062 345.562C176.062 351.879 181.182 357 187.499 357Z" fill="#201F1F"/>
<path d="M267.562 357C273.879 357 279 351.879 279 345.562C279 339.246 273.879 334.125 267.562 334.125C261.246 334.125 256.125 339.246 256.125 345.562C256.125 351.879 261.246 357 267.562 357Z" fill="#201F1F"/>
<path d="M698.017 1660.85C693.892 1660.85 690.549 1657.51 690.549 1653.38C690.549 1649.26 693.892 1645.92 698.017 1645.92C702.141 1645.92 705.484 1649.26 705.484 1653.38C705.484 1657.51 702.141 1660.85 698.017 1660.85Z" fill="#201F1F"/>
<path d="M645.743 1660.85C641.619 1660.85 638.275 1657.51 638.275 1653.38C638.275 1649.26 641.619 1645.92 645.743 1645.92C649.868 1645.92 653.211 1649.26 653.211 1653.38C653.211 1657.51 649.868 1660.85 645.743 1660.85Z" fill="#201F1F"/>
<path d="M593.468 1660.85C589.343 1660.85 586 1657.51 586 1653.38C586 1649.26 589.343 1645.92 593.468 1645.92C597.592 1645.92 600.936 1649.26 600.936 1653.38C600.936 1657.51 597.592 1660.85 593.468 1660.85Z" fill="#201F1F"/>
<path d="M698.017 1713.1C693.892 1713.1 690.549 1709.76 690.549 1705.64C690.549 1701.51 693.892 1698.17 698.017 1698.17C702.141 1698.17 705.484 1701.51 705.484 1705.64C705.484 1709.76 702.141 1713.1 698.017 1713.1Z" fill="#201F1F"/>
<path d="M645.743 1713.1C641.619 1713.1 638.275 1709.76 638.275 1705.64C638.275 1701.51 641.619 1698.17 645.743 1698.17C649.868 1698.17 653.211 1701.51 653.211 1705.64C653.211 1709.76 649.868 1713.1 645.743 1713.1Z" fill="#201F1F"/>
<path d="M593.468 1713.1C589.343 1713.1 586 1709.76 586 1705.64C586 1701.51 589.343 1698.17 593.468 1698.17C597.592 1698.17 600.936 1701.51 600.936 1705.64C600.936 1709.76 597.592 1713.1 593.468 1713.1Z" fill="#201F1F"/>
<path d="M698.017 1765.35C693.892 1765.35 690.549 1762.01 690.549 1757.89C690.549 1753.77 693.892 1750.42 698.017 1750.42C702.141 1750.42 705.484 1753.77 705.484 1757.89C705.484 1762.01 702.141 1765.35 698.017 1765.35Z" fill="#201F1F"/>
<path d="M645.743 1765.35C641.619 1765.35 638.275 1762.01 638.275 1757.89C638.275 1753.77 641.619 1750.42 645.743 1750.42C649.868 1750.42 653.211 1753.77 653.211 1757.89C653.211 1762.01 649.868 1765.35 645.743 1765.35Z" fill="#201F1F"/>
<path d="M593.468 1765.35C589.343 1765.35 586 1762.01 586 1757.89C586 1753.77 589.343 1750.42 593.468 1750.42C597.592 1750.42 600.936 1753.77 600.936 1757.89C600.936 1762.01 597.592 1765.35 593.468 1765.35Z" fill="#201F1F"/>
<path d="M1208.61 1086.87C1202.29 1086.87 1197.17 1081.75 1197.17 1075.44C1197.17 1069.12 1202.29 1064 1208.61 1064C1214.93 1064 1220.05 1069.12 1220.05 1075.44C1220.05 1081.75 1214.93 1086.87 1208.61 1086.87Z" fill="#201F1F"/>
<path d="M1128.55 1086.87C1122.23 1086.87 1117.11 1081.75 1117.11 1075.44C1117.11 1069.12 1122.23 1064 1128.55 1064C1134.86 1064 1139.99 1069.12 1139.99 1075.44C1139.99 1081.75 1134.86 1086.87 1128.55 1086.87Z" fill="#201F1F"/>
<path d="M1048.48 1086.87C1042.17 1086.87 1037.05 1081.75 1037.05 1075.44C1037.05 1069.12 1042.17 1064 1048.48 1064C1054.8 1064 1059.92 1069.12 1059.92 1075.44C1059.92 1081.75 1054.8 1086.87 1048.48 1086.87Z" fill="#201F1F"/>
<path d="M1208.61 1166.94C1202.29 1166.94 1197.17 1161.82 1197.17 1155.5C1197.17 1149.18 1202.29 1144.06 1208.61 1144.06C1214.93 1144.06 1220.05 1149.18 1220.05 1155.5C1220.05 1161.82 1214.93 1166.94 1208.61 1166.94Z" fill="#201F1F"/>
<path d="M1128.55 1166.94C1122.23 1166.94 1117.11 1161.82 1117.11 1155.5C1117.11 1149.18 1122.23 1144.06 1128.55 1144.06C1134.86 1144.06 1139.99 1149.18 1139.99 1155.5C1139.99 1161.82 1134.86 1166.94 1128.55 1166.94Z" fill="#201F1F"/>
<path d="M1048.48 1166.94C1042.17 1166.94 1037.05 1161.82 1037.05 1155.5C1037.05 1149.18 1042.17 1144.06 1048.48 1144.06C1054.8 1144.06 1059.92 1149.18 1059.92 1155.5C1059.92 1161.82 1054.8 1166.94 1048.48 1166.94Z" fill="#201F1F"/>
<path d="M1208.61 1247C1202.29 1247 1197.17 1241.88 1197.17 1235.56C1197.17 1229.25 1202.29 1224.12 1208.61 1224.12C1214.93 1224.12 1220.05 1229.25 1220.05 1235.56C1220.05 1241.88 1214.93 1247 1208.61 1247Z" fill="#201F1F"/>
<path d="M1128.55 1247C1122.23 1247 1117.11 1241.88 1117.11 1235.56C1117.11 1229.25 1122.23 1224.12 1128.55 1224.12C1134.86 1224.12 1139.99 1229.25 1139.99 1235.56C1139.99 1241.88 1134.86 1247 1128.55 1247Z" fill="#201F1F"/>
<path d="M1048.48 1247C1042.17 1247 1037.05 1241.88 1037.05 1235.56C1037.05 1229.25 1042.17 1224.12 1048.48 1224.12C1054.8 1224.12 1059.92 1229.25 1059.92 1235.56C1059.92 1241.88 1054.8 1247 1048.48 1247Z" fill="#201F1F"/>
<path d="M801.03 2688.85C805.155 2688.85 808.498 2685.51 808.498 2681.38C808.498 2677.26 805.155 2673.92 801.03 2673.92C796.906 2673.92 793.562 2677.26 793.562 2681.38C793.562 2685.51 796.906 2688.85 801.03 2688.85Z" fill="#201F1F"/>
<path d="M853.304 2688.85C857.428 2688.85 860.771 2685.51 860.771 2681.38C860.771 2677.26 857.428 2673.92 853.304 2673.92C849.179 2673.92 845.836 2677.26 845.836 2681.38C845.836 2685.51 849.179 2688.85 853.304 2688.85Z" fill="#201F1F"/>
<path d="M905.579 2688.85C909.703 2688.85 913.047 2685.51 913.047 2681.38C913.047 2677.26 909.703 2673.92 905.579 2673.92C901.455 2673.92 898.111 2677.26 898.111 2681.38C898.111 2685.51 901.455 2688.85 905.579 2688.85Z" fill="#201F1F"/>
<path d="M801.03 2741.1C805.155 2741.1 808.498 2737.76 808.498 2733.64C808.498 2729.51 805.155 2726.17 801.03 2726.17C796.906 2726.17 793.562 2729.51 793.562 2733.64C793.562 2737.76 796.906 2741.1 801.03 2741.1Z" fill="#201F1F"/>
<path d="M853.304 2741.1C857.428 2741.1 860.771 2737.76 860.771 2733.64C860.771 2729.51 857.428 2726.17 853.304 2726.17C849.179 2726.17 845.836 2729.51 845.836 2733.64C845.836 2737.76 849.179 2741.1 853.304 2741.1Z" fill="#201F1F"/>
<path d="M905.579 2741.1C909.703 2741.1 913.047 2737.76 913.047 2733.64C913.047 2729.51 909.703 2726.17 905.579 2726.17C901.455 2726.17 898.111 2729.51 898.111 2733.64C898.111 2737.76 901.455 2741.1 905.579 2741.1Z" fill="#201F1F"/>
<path d="M801.03 2793.35C805.155 2793.35 808.498 2790.01 808.498 2785.89C808.498 2781.77 805.155 2778.42 801.03 2778.42C796.906 2778.42 793.562 2781.77 793.562 2785.89C793.562 2790.01 796.906 2793.35 801.03 2793.35Z" fill="#201F1F"/>
<path d="M853.304 2793.35C857.428 2793.35 860.771 2790.01 860.771 2785.89C860.771 2781.77 857.428 2778.42 853.304 2778.42C849.179 2778.42 845.836 2781.77 845.836 2785.89C845.836 2790.01 849.179 2793.35 853.304 2793.35Z" fill="#201F1F"/>
<path d="M905.579 2793.35C909.703 2793.35 913.047 2790.01 913.047 2785.89C913.047 2781.77 909.703 2778.42 905.579 2778.42C901.455 2778.42 898.111 2781.77 898.111 2785.89C898.111 2790.01 901.455 2793.35 905.579 2793.35Z" fill="#201F1F"/>
<path d="M290.437 2114.87C296.754 2114.87 301.875 2109.75 301.875 2103.44C301.875 2097.12 296.754 2092 290.437 2092C284.121 2092 279 2097.12 279 2103.44C279 2109.75 284.121 2114.87 290.437 2114.87Z" fill="#201F1F"/>
<path d="M370.499 2114.87C376.816 2114.87 381.936 2109.75 381.936 2103.44C381.936 2097.12 376.816 2092 370.499 2092C364.182 2092 359.062 2097.12 359.062 2103.44C359.062 2109.75 364.182 2114.87 370.499 2114.87Z" fill="#201F1F"/>
<path d="M450.562 2114.87C456.879 2114.87 462 2109.75 462 2103.44C462 2097.12 456.879 2092 450.562 2092C444.246 2092 439.125 2097.12 439.125 2103.44C439.125 2109.75 444.246 2114.87 450.562 2114.87Z" fill="#201F1F"/>
<path d="M290.437 2194.94C296.754 2194.94 301.875 2189.82 301.875 2183.5C301.875 2177.18 296.754 2172.06 290.437 2172.06C284.121 2172.06 279 2177.18 279 2183.5C279 2189.82 284.121 2194.94 290.437 2194.94Z" fill="#201F1F"/>
<path d="M370.499 2194.94C376.816 2194.94 381.936 2189.82 381.936 2183.5C381.936 2177.18 376.816 2172.06 370.499 2172.06C364.182 2172.06 359.062 2177.18 359.062 2183.5C359.062 2189.82 364.182 2194.94 370.499 2194.94Z" fill="#201F1F"/>
<path d="M450.562 2194.94C456.879 2194.94 462 2189.82 462 2183.5C462 2177.18 456.879 2172.06 450.562 2172.06C444.246 2172.06 439.125 2177.18 439.125 2183.5C439.125 2189.82 444.246 2194.94 450.562 2194.94Z" fill="#201F1F"/>
<path d="M290.437 2275C296.754 2275 301.875 2269.88 301.875 2263.56C301.875 2257.25 296.754 2252.12 290.437 2252.12C284.121 2252.12 279 2257.25 279 2263.56C279 2269.88 284.121 2275 290.437 2275Z" fill="#201F1F"/>
<path d="M370.499 2275C376.816 2275 381.936 2269.88 381.936 2263.56C381.936 2257.25 376.816 2252.12 370.499 2252.12C364.182 2252.12 359.062 2257.25 359.062 2263.56C359.062 2269.88 364.182 2275 370.499 2275Z" fill="#201F1F"/>
<path d="M450.562 2275C456.879 2275 462 2269.88 462 2263.56C462 2257.25 456.879 2252.12 450.562 2252.12C444.246 2252.12 439.125 2257.25 439.125 2263.56C439.125 2269.88 444.246 2275 450.562 2275Z" fill="#201F1F"/>
</g>
</g>
<defs>
<filter id="filter0_d" x="-4" y="-158" width="1449" height="3918" filterUnits="userSpaceOnUse" color-interpolation-filters="sRGB">
<feFlood flood-opacity="0" result="BackgroundImageFix"/>
<feColorMatrix in="SourceAlpha" type="matrix" values="0 0 0 0 0 0 0 0 0 0 0 0 0 0 0 0 0 0 127 0"/>
<feOffset dy="4"/>
<feGaussianBlur stdDeviation="2"/>
<feColorMatrix type="matrix" values="0 0 0 0 0 0 0 0 0 0 0 0 0 0 0 0 0 0 0.25 0"/>
<feBlend mode="normal" in2="BackgroundImageFix" result="effect1_dropShadow"/>
<feBlend mode="normal" in="SourceGraphic" in2="effect1_dropShadow" result="shape"/>
</filter>
<linearGradient id="paint0_linear" x1="329.075" y1="-136.254" x2="451.7" y2="1111.15" gradientUnits="userSpaceOnUse">
<stop stop-color="#1C1C1D"/>
<stop offset="1" stop-color="#08080B"/>
</linearGradient>
<linearGradient id="paint1_linear" x1="317" y1="485" x2="-3.23508" y2="1012.03" gradientUnits="userSpaceOnUse">
<stop stop-color="#161617"/>
<stop offset="0.337097" stop-color="#0C0C0F"/>
</linearGradient>
<linearGradient id="paint2_linear" x1="403" y1="485" x2="14.628" y2="-150.626" gradientUnits="userSpaceOnUse">
<stop offset="0.297841" stop-color="#0C0C0F"/>
<stop offset="1" stop-color="#252424"/>
</linearGradient>
<linearGradient id="paint3_linear" x1="-12.8991" y1="1013" x2="1639.95" y2="1779.41" gradientUnits="userSpaceOnUse">
<stop stop-color="#060607"/>
<stop offset="0.505208" stop-color="#111113"/>
<stop offset="1" stop-color="#141414"/>
</linearGradient>
<linearGradient id="paint4_linear" x1="1441" y1="1898" x2="960.245" y2="3435.03" gradientUnits="userSpaceOnUse">
<stop stop-color="#161617"/>
<stop offset="1" stop-color="#0C0C0F"/>
</linearGradient>
<linearGradient id="paint5_linear" x1="773" y1="468.139" x2="1938.84" y2="951.283" gradientUnits="userSpaceOnUse">
<stop stop-color="#141517"/>
<stop offset="1" stop-color="#060607"/>
</linearGradient>
<linearGradient id="paint6_linear" x1="1441" y1="2622" x2="939.337" y2="3977.83" gradientUnits="userSpaceOnUse">
<stop stop-color="#161617"/>
<stop offset="1" stop-color="#0C0C0F"/>
</linearGradient>
<linearGradient id="paint7_linear" x1="891" y1="3135" x2="691.47" y2="3926.35" gradientUnits="userSpaceOnUse">
<stop stop-color="#161617"/>
<stop offset="0.337097" stop-color="#0C0C0F"/>
</linearGradient>
<clipPath id="clip0">
<rect width="1440" height="4554" fill="white"/>
</clipPath>
</defs>
</svg>
