<svg width="100" height="140" viewBox="0 0 100 140" fill="none" xmlns="http://www.w3.org/2000/svg">
<g clip-path="url(#clip0)">
<path d="M56.5217 0H8.69565C6.25 0 4.18931 0.837862 2.51359 2.51359C0.837862 4.18931 0 6.25 0 8.69565V130.435C0 132.88 0.837862 134.941 2.51359 136.617C4.18931 138.293 6.25 139.13 8.69565 139.13H91.3043C93.75 139.13 95.8107 138.293 97.4864 136.617C99.1621 134.941 100 132.88 100 130.435V43.4783L56.5217 0ZM91.3043 47.1467V47.8261H52.1739V8.69565H52.9891L91.3043 47.1467ZM8.69565 130.435V8.69565H43.4783V56.5217H91.3043V130.435H8.69565Z" fill="white"/>
</g>
<path d="M25.972 115V112.246H28.726V115H25.972ZM32.8372 115C32.1052 115 31.4752 114.742 30.9472 114.226C30.4312 113.698 30.1732 113.068 30.1732 112.336V111.13H32.9632V111.598C32.9632 111.994 32.9632 112.192 32.9632 112.192C32.9632 112.192 33.1612 112.192 33.5572 112.192H39.7132C40.1092 112.192 40.3072 112.192 40.3072 112.192C40.3072 112.192 40.3072 111.994 40.3072 111.598V110.518C40.3072 110.122 40.3072 109.924 40.3072 109.924C40.3072 109.924 40.1092 109.924 39.7132 109.924H32.8372C32.1052 109.924 31.4752 109.666 30.9472 109.15C30.4312 108.622 30.1732 107.992 30.1732 107.26V104.704C30.1732 103.972 30.4312 103.348 30.9472 102.832C31.4752 102.304 32.1052 102.04 32.8372 102.04H40.4692C41.1892 102.04 41.8132 102.304 42.3412 102.832C42.8692 103.348 43.1332 103.972 43.1332 104.704V105.91H40.3072V105.442C40.3072 105.046 40.3072 104.848 40.3072 104.848C40.3072 104.848 40.1092 104.848 39.7132 104.848H33.5572C33.1612 104.848 32.9632 104.848 32.9632 104.848C32.9632 104.848 32.9632 105.046 32.9632 105.442V106.522C32.9632 106.918 32.9632 107.116 32.9632 107.116C32.9632 107.116 33.1612 107.116 33.5572 107.116H40.4692C41.1892 107.116 41.8132 107.38 42.3412 107.908C42.8692 108.424 43.1332 109.048 43.1332 109.78V112.336C43.1332 113.068 42.8692 113.698 42.3412 114.226C41.8132 114.742 41.1892 115 40.4692 115H32.8372ZM49.5434 115V104.848H44.4674V102.04H57.4274V104.848H52.3514V115H49.5434ZM58.7916 115V102.022H61.5816V112.192H71.7516V115H58.7916Z" fill="white"/>
<defs>
<clipPath id="clip0">
<rect width="100" height="139.13" fill="white"/>
</clipPath>
</defs>
</svg>
