<svg width="187" height="159" viewBox="0 0 187 159" fill="none" xmlns="http://www.w3.org/2000/svg">
<g clip-path="url(#clip0)">
<path d="M55.9369 0H8.60567C6.18533 0 4.14596 0.829192 2.48758 2.48758C0.829192 4.14596 0 6.18533 0 8.60567V129.085C0 131.505 0.829192 133.545 2.48758 135.203C4.14596 136.862 6.18533 137.691 8.60567 137.691H90.3595C92.7799 137.691 94.8192 136.862 96.4776 135.203C98.136 133.545 98.9652 131.505 98.9652 129.085V43.0283L55.9369 0ZM90.3595 46.6589V47.3312H51.634V8.60567H52.4408L90.3595 46.6589ZM8.60567 129.085V8.60567H43.0283V55.9369H90.3595V129.085H8.60567Z" fill="white"/>
</g>
<path d="M25.2812 109.955V108.425H26.8112V109.955H25.2812ZM29.0952 109.955C28.6885 109.955 28.3385 109.812 28.0452 109.525C27.7585 109.232 27.6152 108.882 27.6152 108.475V107.805H29.1652V108.065C29.1652 108.285 29.1652 108.395 29.1652 108.395C29.1652 108.395 29.2752 108.395 29.4952 108.395H32.9152C33.1352 108.395 33.2452 108.395 33.2452 108.395C33.2452 108.395 33.2452 108.285 33.2452 108.065V107.465C33.2452 107.245 33.2452 107.135 33.2452 107.135C33.2452 107.135 33.1352 107.135 32.9152 107.135H29.0952C28.6885 107.135 28.3385 106.992 28.0452 106.705C27.7585 106.412 27.6152 106.062 27.6152 105.655V104.235C27.6152 103.828 27.7585 103.482 28.0452 103.195C28.3385 102.902 28.6885 102.755 29.0952 102.755H33.3352C33.7352 102.755 34.0819 102.902 34.3752 103.195C34.6685 103.482 34.8152 103.828 34.8152 104.235V104.905H33.2452V104.645C33.2452 104.425 33.2452 104.315 33.2452 104.315C33.2452 104.315 33.1352 104.315 32.9152 104.315H29.4952C29.2752 104.315 29.1652 104.315 29.1652 104.315C29.1652 104.315 29.1652 104.425 29.1652 104.645V105.245C29.1652 105.465 29.1652 105.575 29.1652 105.575C29.1652 105.575 29.2752 105.575 29.4952 105.575H33.3352C33.7352 105.575 34.0819 105.722 34.3752 106.015C34.6685 106.302 34.8152 106.648 34.8152 107.055V108.475C34.8152 108.882 34.6685 109.232 34.3752 109.525C34.0819 109.812 33.7352 109.955 33.3352 109.955H29.0952ZM38.3764 109.955V104.315H35.5564V102.755H42.7564V104.315H39.9364V109.955H38.3764ZM43.5143 109.955V102.745H45.0643V108.395H50.7143V109.955H43.5143Z" fill="white"/>
<path d="M145.545 125.793H160.571V114.524L179.353 131.428L160.571 148.332V137.062H145.545V125.793ZM171.84 76.9592H111.737C109.744 76.9592 107.834 77.7508 106.425 79.1597C105.016 80.5686 104.224 82.4796 104.224 84.4721V129.549C104.224 131.542 105.016 133.453 106.425 134.862C107.834 136.271 109.744 137.062 111.737 137.062H138.032V129.549H111.737V91.985L141.789 110.767L171.84 91.985V114.524H179.353V84.4721C179.353 82.4796 178.561 80.5686 177.153 79.1597C175.744 77.7508 173.833 76.9592 171.84 76.9592ZM141.789 103.254L111.737 84.4721H171.84L141.789 103.254Z" fill="white"/>
<defs>
<clipPath id="clip0">
<rect width="98.9652" height="137.691" fill="white"/>
</clipPath>
</defs>
</svg>
