<svg width="152" height="141" viewBox="0 0 152 141" fill="none" xmlns="http://www.w3.org/2000/svg">
<path d="M7.9375 19.8438V107.156H119.062V19.8438H7.9375ZM15.875 27.7812H111.125V82.9707L90.17 61.8887L87.3125 59.0312L84.455 61.8887L69.3341 77.0176L46.5138 53.9512L43.6562 51.0937L40.7987 53.9512L15.875 78.8749V27.7812ZM95.25 35.7188C94.193 35.6948 93.1418 35.8824 92.1582 36.2703C91.1747 36.6582 90.2785 37.2387 89.5224 37.9778C88.7663 38.7168 88.1654 39.5995 87.7551 40.5739C87.3448 41.5483 87.1333 42.5949 87.133 43.6522C87.1328 44.7095 87.3438 45.7562 87.7536 46.7309C88.1634 47.7055 88.7638 48.5885 89.5196 49.3279C90.2753 50.0673 91.1712 50.6483 92.1546 51.0367C93.1379 51.4251 94.189 51.6132 95.246 51.5898C97.3199 51.5439 99.2935 50.688 100.744 49.2052C102.195 47.7224 103.008 45.7306 103.008 43.6562C103.009 41.5818 102.197 39.5896 100.747 38.1061C99.297 36.6226 97.3239 35.7656 95.25 35.7188ZM43.6562 62.3888L80.1211 99.2188H15.875V90.17L43.6562 62.3888ZM87.3125 70.3262L111.125 94.1387V99.2188H91.4003L74.9102 82.5976L87.3125 70.3262Z" fill="white"/>
<g clip-path="url(#clip0)">
<mask id="path-2-outside-1" maskUnits="userSpaceOnUse" x="90.375" y="75.9166" width="72" height="73" fill="black">
<rect fill="white" x="90.375" y="75.9166" width="72" height="73"/>
<path d="M120.042 86.9166L137.983 92.5216C138.483 92.6778 138.92 92.9899 139.231 93.4123C139.541 93.8346 139.709 94.3451 139.708 94.8693V99.2083H144.625C145.277 99.2083 145.902 99.4673 146.363 99.9283C146.824 100.389 147.083 101.015 147.083 101.667V121.333C147.083 121.985 146.824 122.611 146.363 123.072C145.902 123.533 145.277 123.792 144.625 123.792L136.709 123.794C135.758 125.048 134.602 126.154 133.268 127.064L120.042 136.083L106.816 127.066C104.831 125.713 103.206 123.895 102.084 121.771C100.961 119.646 100.375 117.28 100.375 114.878V94.8693C100.375 94.3456 100.543 93.8356 100.853 93.4137C101.164 92.9919 101.601 92.6802 102.101 92.5241L120.042 86.9166ZM120.042 92.0644L105.292 96.6762V114.878C105.291 116.383 105.636 117.868 106.3 119.218C106.965 120.569 107.93 121.749 109.122 122.668L109.586 123.003L120.042 130.134L129.339 123.792H117.583C116.931 123.792 116.306 123.533 115.845 123.072C115.384 122.611 115.125 121.985 115.125 121.333V101.667C115.125 101.015 115.384 100.389 115.845 99.9283C116.306 99.4673 116.931 99.2083 117.583 99.2083H134.792V96.6762L120.042 92.0644ZM120.042 111.5V118.875H142.167V111.5H120.042ZM120.042 106.583H142.167V104.125H120.042V106.583Z"/>
</mask>
<path d="M120.042 86.9166L137.983 92.5216C138.483 92.6778 138.92 92.9899 139.231 93.4123C139.541 93.8346 139.709 94.3451 139.708 94.8693V99.2083H144.625C145.277 99.2083 145.902 99.4673 146.363 99.9283C146.824 100.389 147.083 101.015 147.083 101.667V121.333C147.083 121.985 146.824 122.611 146.363 123.072C145.902 123.533 145.277 123.792 144.625 123.792L136.709 123.794C135.758 125.048 134.602 126.154 133.268 127.064L120.042 136.083L106.816 127.066C104.831 125.713 103.206 123.895 102.084 121.771C100.961 119.646 100.375 117.28 100.375 114.878V94.8693C100.375 94.3456 100.543 93.8356 100.853 93.4137C101.164 92.9919 101.601 92.6802 102.101 92.5241L120.042 86.9166ZM120.042 92.0644L105.292 96.6762V114.878C105.291 116.383 105.636 117.868 106.3 119.218C106.965 120.569 107.93 121.749 109.122 122.668L109.586 123.003L120.042 130.134L129.339 123.792H117.583C116.931 123.792 116.306 123.533 115.845 123.072C115.384 122.611 115.125 121.985 115.125 121.333V101.667C115.125 101.015 115.384 100.389 115.845 99.9283C116.306 99.4673 116.931 99.2083 117.583 99.2083H134.792V96.6762L120.042 92.0644ZM120.042 111.5V118.875H142.167V111.5H120.042ZM120.042 106.583H142.167V104.125H120.042V106.583Z" fill="white"/>
<path d="M120.042 86.9166L123.024 77.3716L120.041 76.4398L117.058 77.372L120.042 86.9166ZM137.983 92.5216L135.001 102.067L135.003 102.067L137.983 92.5216ZM139.708 94.8693L129.708 94.865V94.8693H139.708ZM139.708 99.2083H129.708V109.208H139.708V99.2083ZM144.625 123.792V113.792H144.622L144.625 123.792ZM136.709 123.794L136.706 113.794L131.743 113.796L128.743 117.749L136.709 123.794ZM133.268 127.064L127.636 118.8L127.633 118.802L133.268 127.064ZM120.042 136.083L114.408 144.346L120.042 148.187L125.676 144.345L120.042 136.083ZM106.816 127.066L101.183 135.328L101.183 135.329L106.816 127.066ZM100.375 114.878L110.375 114.879V114.878H100.375ZM100.375 94.8693L90.375 94.8637V94.8693H100.375ZM102.101 92.5241L105.081 102.07L105.084 102.069L102.101 92.5241ZM120.042 92.0644L123.026 82.52L120.042 81.587L117.057 82.52L120.042 92.0644ZM105.292 96.6762L102.307 87.1319L95.2917 89.3255V96.6762H105.292ZM105.292 114.878L115.292 114.88V114.878H105.292ZM109.122 122.668L103.017 130.588L103.147 130.689L103.281 130.785L109.122 122.668ZM109.586 123.003L103.746 131.119L103.848 131.193L103.951 131.264L109.586 123.003ZM120.042 130.134L114.407 138.395L120.042 142.239L125.677 138.395L120.042 130.134ZM129.339 123.792L134.974 132.053L161.743 113.792H129.339V123.792ZM117.583 99.2083V109.208V99.2083ZM134.792 99.2083V109.208H144.792V99.2083H134.792ZM134.792 96.6762H144.792V89.3255L137.776 87.1319L134.792 96.6762ZM120.042 111.5V101.5H110.042V111.5H120.042ZM120.042 118.875H110.042V128.875H120.042V118.875ZM142.167 118.875V128.875H152.167V118.875H142.167ZM142.167 111.5H152.167V101.5H142.167V111.5ZM120.042 106.583H110.042V116.583H120.042V106.583ZM142.167 106.583V116.583H152.167V106.583H142.167ZM142.167 104.125H152.167V94.125H142.167V104.125ZM120.042 104.125V94.125H110.042V104.125H120.042ZM117.06 96.4617L135.001 102.067L140.965 82.9766L123.024 77.3716L117.06 96.4617ZM135.003 102.067C133.468 101.588 132.126 100.631 131.173 99.335L147.288 87.4895C145.715 85.349 143.498 83.7676 140.963 82.976L135.003 102.067ZM131.173 99.335C130.221 98.0393 129.708 96.4731 129.708 94.865L149.708 94.8737C149.709 92.2172 148.861 89.6299 147.288 87.4895L131.173 99.335ZM129.708 94.8693V99.2083H149.708V94.8693H129.708ZM139.708 109.208H144.625V89.2083H139.708V109.208ZM144.625 109.208C142.625 109.208 140.707 108.414 139.292 106.999L153.434 92.8573C151.098 90.5209 147.929 89.2083 144.625 89.2083V109.208ZM139.292 106.999C137.878 105.585 137.083 103.667 137.083 101.667H157.083C157.083 98.3625 155.771 95.1937 153.434 92.8573L139.292 106.999ZM137.083 101.667V121.333H157.083V101.667H137.083ZM137.083 121.333C137.083 119.333 137.878 117.415 139.292 116.001L153.434 130.143C155.771 127.806 157.083 124.637 157.083 121.333H137.083ZM139.292 116.001C140.707 114.586 142.625 113.792 144.625 113.792V133.792C147.929 133.792 151.098 132.479 153.434 130.143L139.292 116.001ZM144.622 113.792L136.706 113.794L136.712 133.794L144.628 133.792L144.622 113.792ZM128.743 117.749C128.438 118.151 128.069 118.505 127.636 118.8L138.899 135.328C141.136 133.803 143.077 131.945 144.675 129.839L128.743 117.749ZM127.633 118.802L114.407 127.822L125.676 144.345L138.902 135.325L127.633 118.802ZM125.675 127.821L112.449 118.804L101.183 135.329L114.408 144.346L125.675 127.821ZM112.449 118.804C111.81 118.368 111.287 117.783 110.925 117.099L93.2425 126.443C95.126 130.007 97.8516 133.057 101.183 135.328L112.449 118.804ZM110.925 117.099C110.564 116.414 110.375 115.652 110.375 114.879L90.375 114.877C90.3746 118.908 91.3589 122.879 93.2425 126.443L110.925 117.099ZM110.375 114.878V94.8693H90.375V114.878H110.375ZM110.375 94.875C110.374 96.4818 109.86 98.0463 108.908 99.3405L92.7989 87.4869C91.2257 89.6248 90.3765 92.2093 90.375 94.8637L110.375 94.875ZM108.908 99.3405C107.955 100.635 106.615 101.591 105.081 102.07L99.1208 82.9784C96.587 83.7694 94.3721 85.349 92.7989 87.4869L108.908 99.3405ZM105.084 102.069L123.025 96.4613L117.058 77.372L99.1176 82.9794L105.084 102.069ZM117.057 82.52L102.307 87.1319L108.276 106.221L123.026 101.609L117.057 82.52ZM95.2917 96.6762V114.878H115.292V96.6762H95.2917ZM95.2917 114.875C95.291 117.911 95.9871 120.906 97.3264 123.63L115.275 114.806C115.286 114.829 115.292 114.855 115.292 114.88L95.2917 114.875ZM97.3264 123.63C98.6657 126.355 100.612 128.735 103.017 130.588L115.227 114.748C115.247 114.764 115.263 114.784 115.275 114.806L97.3264 123.63ZM103.281 130.785L103.746 131.119L115.427 114.886L114.963 114.551L103.281 130.785ZM103.951 131.264L114.407 138.395L125.677 121.873L115.221 114.741L103.951 131.264ZM125.677 138.395L134.974 132.053L123.704 115.531L114.406 121.873L125.677 138.395ZM129.339 113.792H117.583V133.792H129.339V113.792ZM117.583 113.792C119.583 113.792 121.502 114.586 122.916 116.001L108.774 130.143C111.11 132.479 114.279 133.792 117.583 133.792V113.792ZM122.916 116.001C124.33 117.415 125.125 119.333 125.125 121.333H105.125C105.125 124.637 106.438 127.806 108.774 130.143L122.916 116.001ZM125.125 121.333V101.667H105.125V121.333H125.125ZM125.125 101.667C125.125 103.667 124.33 105.585 122.916 106.999L108.774 92.8573C106.438 95.1936 105.125 98.3625 105.125 101.667H125.125ZM122.916 106.999C121.502 108.414 119.584 109.208 117.583 109.208V89.2083C114.279 89.2083 111.11 90.5209 108.774 92.8573L122.916 106.999ZM117.583 109.208H134.792V89.2083H117.583V109.208ZM144.792 99.2083V96.6762H124.792V99.2083H144.792ZM137.776 87.1319L123.026 82.52L117.057 101.609L131.807 106.221L137.776 87.1319ZM110.042 111.5V118.875H130.042V111.5H110.042ZM120.042 128.875H142.167V108.875H120.042V128.875ZM152.167 118.875V111.5H132.167V118.875H152.167ZM142.167 101.5H120.042V121.5H142.167V101.5ZM120.042 116.583H142.167V96.5833H120.042V116.583ZM152.167 106.583V104.125H132.167V106.583H152.167ZM142.167 94.125H120.042V114.125H142.167V94.125ZM110.042 104.125V106.583H130.042V104.125H110.042Z" fill="#121214" mask="url(#path-2-outside-1)"/>
</g>
<defs>
<clipPath id="clip0">
<rect width="59" height="59" fill="white" transform="translate(93 82)"/>
</clipPath>
</defs>
</svg>
