<svg width="20" height="20" viewBox="0 0 20 20" fill="none" xmlns="http://www.w3.org/2000/svg">
<g clip-path="url(#clip0)">
<path d="M5.50485 8.22662C6.17819 9.44395 6.9531 10.6155 7.95831 11.6835C8.96807 12.7565 10.2184 13.7344 11.8442 14.5634L11.8458 14.5642L11.8462 14.5634C11.9647 14.6241 12.0774 14.6226 12.1834 14.5827C12.3371 14.525 12.497 14.3967 12.6526 14.2415C12.7713 14.1227 12.9201 13.9268 13.0809 13.7143C13.7068 12.8876 14.4808 11.8657 15.5734 12.3741C15.5965 12.3847 15.6183 12.3972 15.6388 12.4111L19.2802 14.5134C19.2933 14.5209 19.3058 14.5289 19.3177 14.5374C19.8004 14.8704 19.9975 15.3834 19.9996 15.9577C20.0019 16.55 19.7833 17.213 19.4668 17.7736C19.0493 18.5125 18.4272 19.0007 17.7153 19.3317C17.0366 19.647 16.2833 19.8149 15.556 19.9218C14.4184 20.0895 13.346 19.983 12.2539 19.6451C11.1878 19.3151 10.1093 18.7642 8.93357 18.0322L8.84795 17.9789C8.30661 17.6419 7.72393 17.2794 7.15704 16.8495C5.06312 15.2612 2.9308 12.969 1.54815 10.4534C0.38425 8.33572 -0.252632 6.0517 0.0945361 3.87385C0.284803 2.67876 0.797661 1.59392 1.68178 0.875328C2.45684 0.245068 3.50274 -0.0963156 4.84714 0.0242403C5.00551 0.0379807 5.13897 0.128766 5.21416 0.256355L5.21514 0.255864L7.54652 4.22586C7.88995 4.67047 7.92803 5.11163 7.74232 5.55018C7.58884 5.91299 7.27162 6.24554 6.85105 6.55912C6.72312 6.66544 6.57305 6.77586 6.41827 6.88971C5.89776 7.27264 5.30238 7.71053 5.50485 8.22662ZM7.27048 12.3375C6.19561 11.1954 5.37676 9.95873 4.67038 8.68038C4.65801 8.66026 4.64695 8.63899 4.63751 8.61658C4.1209 7.39647 5.04766 6.71501 5.85707 6.12008C5.9946 6.01899 6.12774 5.92101 6.24786 5.8209L6.24818 5.82139C6.25518 5.8155 6.2625 5.80977 6.27015 5.80421C6.57012 5.58273 6.78627 5.37123 6.86879 5.17657C6.91583 5.0655 6.89841 4.94331 6.79294 4.80607C6.77487 4.78497 6.75827 4.76174 6.74362 4.73688L4.5239 0.957444C3.56866 0.918022 2.8281 1.17353 2.28041 1.61895C1.59047 2.17985 1.18617 3.05171 1.03139 4.02336C0.721326 5.96894 1.31068 8.04636 2.38099 9.9939C3.69577 12.3859 5.72979 14.5703 7.72995 16.0871C8.27992 16.5042 8.83282 16.8482 9.34649 17.1679L9.4321 17.2212C10.5418 17.912 11.5508 18.4294 12.533 18.7333C13.4894 19.0292 14.4266 19.1226 15.4186 18.9764C16.0711 18.8804 16.7391 18.7335 17.3177 18.4645C17.8631 18.211 18.3346 17.8454 18.6416 17.3025C18.8851 16.8711 19.0534 16.3778 19.0519 15.9576C19.0509 15.6909 18.9751 15.4621 18.7907 15.3288L15.1692 13.2384C14.7687 13.0616 14.2531 13.7424 13.8357 14.2935C13.6561 14.531 13.4899 14.7502 13.3221 14.9179C13.0817 15.1577 12.8146 15.3633 12.5145 15.4758C12.1668 15.6065 11.7991 15.6123 11.415 15.4153L11.4153 15.4147C9.6878 14.5338 8.35332 13.4882 7.27048 12.3375Z" fill="#AAA1A1"/>
</g>
<defs>
<clipPath id="clip0">
<rect width="20" height="20" fill="white"/>
</clipPath>
</defs>
</svg>
