<svg width="101" height="163" viewBox="0 0 101 163" fill="none" xmlns="http://www.w3.org/2000/svg">
<path fill-rule="evenodd" clip-rule="evenodd" d="M28.5 0C26.5109 0 24.6032 0.790176 23.1967 2.1967C21.7902 3.60322 21 5.51088 21 7.5V37.5C21 39.4891 21.7902 41.3968 23.1967 42.8033C24.6032 44.2098 26.5109 45 28.5 45H37.875C38.4572 45 39.0313 45.1355 39.5521 45.3959C40.0728 45.6562 40.5257 46.0343 40.875 46.5L48 55.9987C48.3493 56.4645 48.8022 56.8425 49.3229 57.1028C49.8437 57.3632 50.4178 57.4987 51 57.4987C51.5822 57.4987 52.1563 57.3632 52.677 57.1028C53.1978 56.8425 53.6507 56.4645 54 55.9987L61.125 46.5C61.4743 46.0343 61.9272 45.6562 62.448 45.3959C62.9687 45.1355 63.5428 45 64.125 45H73.5C75.4891 45 77.3968 44.2098 78.8033 42.8033C80.2098 41.3968 81 39.4891 81 37.5V7.5C81 5.51088 80.2098 3.60322 78.8033 2.1967C77.3968 0.790176 75.4891 0 73.5 0L28.5 0Z" fill="white"/>
<path d="M92.6668 79C92.6668 74.4166 88.9168 70.6666 84.3335 70.6666H17.6668C13.0835 70.6666 9.3335 74.4166 9.3335 79V129C9.3335 133.583 13.0835 137.333 17.6668 137.333H84.3335C88.9168 137.333 92.6668 133.583 92.6668 129V79ZM84.3335 79L51.0002 99.8333L17.6668 79H84.3335ZM84.3335 129H17.6668V87.3333L51.0002 108.167L84.3335 87.3333V129Z" fill="white"/>
<g clip-path="url(#clip0)">
<path d="M20.7304 157.4L26.4168 161.949V154.667V147.75H27.0835H27.0846C29.8641 147.749 32.591 148.508 34.9706 149.944C37.3502 151.381 39.2919 153.44 40.5859 155.9L46.1842 166.543L47.1717 154.558C47.2262 153.896 47.2502 153.237 47.2502 152.583C47.2502 140.333 38.1977 130.197 26.4168 128.5V121.333V114.051L20.7304 118.6L-0.102937 135.267L-3.51924 138L-0.102937 140.733L20.7304 157.4Z" fill="white" stroke="#121214" stroke-width="7"/>
</g>
<path d="M51 5.5C41.3359 5.5 33.5 13.3359 33.5 23C33.5 32.6641 41.3359 40.5 51 40.5C60.6641 40.5 68.5 32.6641 68.5 23C68.5 13.3359 60.6641 5.5 51 5.5ZM51 37.5312C42.9766 37.5312 36.4688 31.0234 36.4688 23C36.4688 14.9766 42.9766 8.46875 51 8.46875C59.0234 8.46875 65.5312 14.9766 65.5312 23C65.5312 31.0234 59.0234 37.5312 51 37.5312Z" fill="black"/>
<path d="M57.8242 27.9453L52.2539 23.918V14.25C52.2539 14.0781 52.1133 13.9375 51.9414 13.9375H50.0625C49.8906 13.9375 49.75 14.0781 49.75 14.25V25.0078C49.75 25.1094 49.7969 25.2031 49.8789 25.2617L56.3398 29.9727C56.4805 30.0742 56.6758 30.043 56.7773 29.9062L57.8945 28.3828C57.9961 28.2383 57.9648 28.043 57.8242 27.9453Z" fill="black"/>
<defs>
<clipPath id="clip0">
<rect width="50" height="50" fill="white" transform="translate(0 113)"/>
</clipPath>
</defs>
</svg>
