<svg width="25" height="25" viewBox="0 0 25 25" fill="none" xmlns="http://www.w3.org/2000/svg">
<path d="M12.3989 6.2301C11.7809 6.2301 11.1767 6.41338 10.6628 6.75676C10.1489 7.10014 9.74833 7.5882 9.5118 8.15922C9.27528 8.73024 9.21339 9.35857 9.33397 9.96476C9.45455 10.571 9.75218 11.1278 10.1892 11.5648C10.6263 12.0019 11.1831 12.2995 11.7893 12.4201C12.3955 12.5406 13.0238 12.4788 13.5948 12.2422C14.1658 12.0057 14.6539 11.6052 14.9973 11.0913C15.3407 10.5774 15.5239 9.97317 15.5239 9.3551C15.523 8.52659 15.1934 7.73228 14.6076 7.14644C14.0217 6.56059 13.2274 6.23105 12.3989 6.2301ZM12.3989 10.9176C12.0899 10.9176 11.7878 10.826 11.5308 10.6543C11.2739 10.4826 11.0736 10.2386 10.9554 9.95305C10.8371 9.66754 10.8062 9.35337 10.8664 9.05027C10.9267 8.74718 11.0756 8.46877 11.2941 8.25025C11.5126 8.03173 11.791 7.88291 12.0941 7.82263C12.3972 7.76234 12.7114 7.79328 12.9969 7.91154C13.2824 8.0298 13.5264 8.23007 13.6981 8.48702C13.8698 8.74398 13.9614 9.04607 13.9614 9.3551C13.961 9.76936 13.7962 10.1665 13.5033 10.4594C13.2103 10.7524 12.8132 10.9171 12.3989 10.9176Z" fill="#AAA1A1"/>
<path d="M18.4042 3.34547C16.9195 1.86111 14.9375 0.979345 12.8409 0.870347C10.7443 0.76135 8.6816 1.43285 7.05096 2.75524C5.42031 4.07764 4.3373 5.95719 4.01096 8.03113C3.68462 10.1051 4.13807 12.2264 5.2838 13.9857L11.1875 23.0488C11.3188 23.2505 11.4985 23.4162 11.7101 23.5308C11.9217 23.6455 12.1586 23.7056 12.3993 23.7056C12.6399 23.7056 12.8768 23.6455 13.0884 23.5308C13.3 23.4162 13.4797 23.2505 13.6111 23.0488L19.5149 13.9857C20.578 12.3537 21.0478 10.4059 20.8456 8.46868C20.6434 6.5315 19.7814 4.7227 18.4042 3.34547ZM18.2057 13.1328L12.3993 22.0463L6.59279 13.1328C4.81544 10.4043 5.19665 6.75294 7.49919 4.4503C8.14267 3.8068 8.9066 3.29634 9.74736 2.94808C10.5881 2.59982 11.4892 2.42057 12.3993 2.42057C13.3093 2.42057 14.2104 2.59982 15.0512 2.94808C15.892 3.29634 16.6559 3.8068 17.2994 4.4503C19.6019 6.75294 19.9831 10.4043 18.2057 13.1328Z" fill="#AAA1A1"/>
</svg>
