<svg width="150" height="132" viewBox="0 0 150 132" fill="none" xmlns="http://www.w3.org/2000/svg">
<path d="M140.382 44.0365L140.399 44.0407L140.415 44.0442C142.902 44.577 144.943 45.9002 146.563 48.0609C148.201 50.2447 149 52.576 149 55.0781V81.1523C149 84.4082 147.881 87.1307 145.631 89.3808C143.381 91.6309 140.658 92.75 137.402 92.75H135.645H134.975L134.72 93.3692C133.427 96.5091 131.248 99.3055 128.141 101.754C125.085 104.161 121.736 105.348 118.066 105.348C113.834 105.348 110.388 104.339 107.663 102.385C104.936 100.431 102.846 97.4713 101.432 93.4206L101.199 92.75H100.488H42.4805H41.7476L41.5269 93.4489C40.421 96.9507 38.3547 99.8021 35.3005 102.023C32.2541 104.239 28.7992 105.348 24.9023 105.348C21.4384 105.348 18.132 104.168 14.9629 101.745C11.7676 99.3012 9.65612 96.5224 8.56018 93.4172L8.3247 92.75H7.61719H1V18.75C1 15.7178 2.14731 13.0364 4.5157 10.668C6.88409 8.29965 9.56549 7.15234 12.5977 7.15234H96.3867C100.064 7.15234 103.298 9.04942 106.095 13.1427L122.196 39.1976L122.41 39.5434L122.804 39.642L140.382 44.0365ZM137.402 82.1523H138.402V81.1523V55.0781V54.3005L137.649 54.109L120.364 49.7144L120.242 49.6836H120.117C119.899 49.6836 119.661 49.6304 119.393 49.4962C118.994 49.297 118.517 49.0977 118.066 49.0977H93.75C91.8655 49.0977 90.6329 48.6065 89.8591 47.7959C89.077 46.9765 88.5977 45.658 88.5977 43.6523V31.3477C88.5977 29.342 89.077 28.0235 89.8591 27.2041C90.6329 26.3935 91.8655 25.9023 93.75 25.9023H99.9023H101.626L100.771 24.4062L97.255 18.2539L96.967 17.75H96.3867H12.5977H11.5977V18.75V73.8281V76.4729L13.3475 74.4897C16.051 71.4258 19.8558 69.8477 24.9023 69.8477C28.5934 69.8477 32.0066 70.9505 35.1655 73.1803C38.3294 75.4136 40.4339 78.1749 41.5318 81.4686L41.7597 82.1523H42.4805H101.367H102.1L102.321 81.4535C103.426 77.9552 105.487 75.1584 108.531 73.0372C111.587 70.9073 114.952 69.8477 118.652 69.8477C122.333 69.8477 125.741 70.9929 128.9 73.3154C132.087 75.6587 134.193 78.3846 135.287 81.4852L135.523 82.1523H136.23H137.402ZM19.8007 92.6993C21.1724 94.071 22.8972 94.75 24.9023 94.75C27.0697 94.75 28.9043 94.0919 30.297 92.6993C31.6686 91.3276 32.3477 89.6028 32.3477 87.5977C32.3477 85.2951 31.7713 83.3845 30.4434 82.0566C29.1155 80.7287 27.2049 80.1523 24.9023 80.1523C22.8972 80.1523 21.1724 80.8314 19.8007 82.203C18.4081 83.5957 17.75 85.4303 17.75 87.5977C17.75 89.6028 18.429 91.3276 19.8007 92.6993ZM113.551 92.6993C114.922 94.071 116.647 94.75 118.652 94.75C120.82 94.75 122.654 94.0919 124.047 92.6993C125.419 91.3276 126.098 89.6028 126.098 87.5977C126.098 85.2951 125.521 83.3845 124.193 82.0566C122.866 80.7287 120.955 80.1523 118.652 80.1523C116.647 80.1523 114.922 80.8314 113.551 82.203C112.158 83.5957 111.5 85.4303 111.5 87.5977C111.5 89.6028 112.179 91.3276 113.551 92.6993Z" fill="white" stroke="black" stroke-width="2"/>
<g clip-path="url(#clip0)">
<path fill-rule="evenodd" clip-rule="evenodd" d="M49.465 29.7825C49.1665 29.6629 48.8335 29.6629 48.535 29.7825L33.615 35.75L49 41.9025L64.385 35.75L49.465 29.7825ZM66.5 37.5975L50.25 44.0975V63.9025L66.5 57.4025V37.6V37.5975ZM47.75 63.905V44.095L31.5 37.5975V57.405L47.75 63.905ZM47.6075 27.46C48.5014 27.1025 49.4986 27.1025 50.3925 27.46L68.215 34.59C68.4467 34.6829 68.6453 34.843 68.7852 35.0497C68.9251 35.2565 68.9999 35.5004 69 35.75V57.405C68.9997 57.9046 68.8497 58.3926 68.5694 58.8061C68.2891 59.2196 67.8914 59.5397 67.4275 59.725L49.465 66.91C49.1665 67.0296 48.8335 67.0296 48.535 66.91L30.575 59.725C30.1106 59.5401 29.7124 59.2202 29.4316 58.8066C29.1509 58.3931 29.0005 57.9049 29 57.405V35.75C29.0001 35.5004 29.0749 35.2565 29.2148 35.0497C29.3547 34.843 29.5533 34.6829 29.785 34.59L47.6075 27.46Z" fill="white"/>
</g>
<defs>
<clipPath id="clip0">
<rect width="40" height="40" fill="white" transform="translate(29 27)"/>
</clipPath>
</defs>
</svg>
